<svg xmlns="http://www.w3.org/2000/svg"
     width="190" height="325" viewBox="0 -90 380 650"
     fill="none" role="img" aria-labelledby="title desc">
  <title id="title">Britclip / 英伦夹</title>
  <desc id="desc">Paperclip Pal transformed into an old-fashioned British club concierge with a charcoal top hat, burgundy bow tie, and walnut cane held by its tail.</desc>

  <metadata>
    costume_id: britclip
    lifecycle: persistent_costume
    profession: Edwardian club concierge and old-school gentleman
    source_character: paperclip-pal-refined.svg
    style: pure flat vector, no mouth, no hands, no feet
  </metadata>

  <g id="optional_flat_shadow">
    <ellipse cx="177" cy="527" rx="116" ry="13" fill="#E9E9E9"/>
    <ellipse cx="333" cy="528" rx="25" ry="6" fill="#E4DED8"/>
  </g>

  <g id="body_root">
    <g id="body_wire">
      <path d="M124 267.226
               C124 267.226 113.008 384.271 158 407.226
               C182.5 419.726 210.918 399.226 206 369.226
               C200.18 333.727 196 265.226 206 202.226
               C214.622 147.907 214.983 149.226 231.5 96.7265
               C248.017 44.2265 201 -1.42701 148 20.7265
               C72.5 52.2846 42.7789 215.226 53.4999 312.226
               C67.2106 436.276 101.591 483.694 130 509.226
               C169.5 544.726 222.497 545.135 254 500.226
               C277.5 466.726 254 374.226 257.5 322.226"
            stroke="#AEAEAE" stroke-width="30" stroke-linecap="round" stroke-linejoin="round"/>
    </g>

    <g id="tail_root">
      <path id="tail_wire"
            d="M257.5 322.226
               C261 299 276 276 297 260
               C309 251 320 247 333 250"
            stroke="#AEAEAE" stroke-width="30" stroke-linecap="round" stroke-linejoin="round"/>
      <path id="tail_grip"
            d="M331 250
               C342 244 350 250 347 260
               C344 270 331 271 326 263
               C322 257 325 253 331 250"
            stroke="#AEAEAE" stroke-width="17" stroke-linecap="round" stroke-linejoin="round"/>
    </g>

    <g id="left_eye_white">
      <circle cx="57" cy="154.726" r="57" fill="#ECECEC"/>
    </g>
    <g id="right_eye_white">
      <ellipse cx="213" cy="195.226" rx="57" ry="56.5" fill="#ECECEC"/>
    </g>

    <g id="left_pupil">
      <circle cx="69" cy="151" r="38" fill="#402A32"/>
      <circle cx="81" cy="137" r="7" fill="#FFFFFF" opacity="0.88"/>
    </g>
    <g id="right_pupil">
      <circle cx="210" cy="190" r="38" fill="#402A32"/>
      <circle cx="222" cy="176" r="7" fill="#FFFFFF" opacity="0.88"/>
    </g>

    <g id="left_brow">
      <path d="M64 56.7265 C81 49 102 48 125 55"
            stroke="#402A32" stroke-width="30" stroke-linecap="round"/>
    </g>
    <g id="right_brow">
      <path d="M204 92.7265 C223 86 243 95 259 111"
            stroke="#402A32" stroke-width="30" stroke-linecap="round"/>
    </g>
  </g>

  <g id="costume_britclip">
    <g id="top_hat" data-anchor="hat_anchor">
      <path id="hat_crown"
            d="M101 -58 C127 -72 190 -74 220 -59 L226 18 C197 30 126 31 96 19 Z"
            fill="#30353B" stroke="#20252A" stroke-width="5" stroke-linejoin="round"/>
      <path id="hat_crown_highlight"
            d="M113 -48 C134 -58 180 -60 204 -51"
            stroke="#515861" stroke-width="5" stroke-linecap="round" opacity="0.75"/>
      <path id="hat_band"
            d="M98 0 C129 9 193 9 224 0 L226 20 C194 31 127 31 96 20 Z"
            fill="#6E2638"/>
      <path id="hat_brim"
            d="M70 18 C102 7 221 7 250 21 C252 34 242 43 223 47 C177 56 106 54 78 45 C67 41 62 31 70 18 Z"
            fill="#2A2F34" stroke="#20252A" stroke-width="5" stroke-linejoin="round"/>
      <path id="hat_brim_highlight"
            d="M87 34 C126 43 204 43 235 33"
            stroke="#4A5057" stroke-width="4" stroke-linecap="round" opacity="0.8"/>
    </g>

    <g id="bow_tie" data-anchor="bow_tie_anchor">
      <path id="bow_left"
            d="M151 247 C137 235 117 234 106 249 C112 267 130 273 151 260 Z"
            fill="#7A263B" stroke="#4D1826" stroke-width="4" stroke-linejoin="round"/>
      <path id="bow_right"
            d="M165 247 C179 235 199 235 211 249 C205 267 186 273 165 260 Z"
            fill="#7A263B" stroke="#4D1826" stroke-width="4" stroke-linejoin="round"/>
      <path id="bow_left_fold" d="M147 249 C132 247 121 250 114 256"
            stroke="#A65063" stroke-width="4" stroke-linecap="round"/>
      <path id="bow_right_fold" d="M169 249 C184 247 195 250 203 256"
            stroke="#A65063" stroke-width="4" stroke-linecap="round"/>
      <ellipse id="bow_knot" cx="158" cy="254" rx="13" ry="12"
               fill="#5F1E30" stroke="#451522" stroke-width="4"/>
    </g>

    <g id="cane" data-anchor="cane_anchor">
      <path id="cane_shadow"
            d="M337 520 L337 257 C337 232 348 219 360 225 C372 232 369 248 358 254 C350 259 342 256 338 250"
            stroke="#3B241B" stroke-width="14" stroke-linecap="round" stroke-linejoin="round" opacity="0.28"/>
      <path id="cane_body"
            d="M333 518 L333 255 C333 231 345 216 358 223 C371 230 366 247 354 253 C346 257 338 254 334 248"
            stroke="#5A3828" stroke-width="11" stroke-linecap="round" stroke-linejoin="round"/>
      <path id="cane_highlight" d="M329 511 L329 268"
            stroke="#8A5A3B" stroke-width="3.5" stroke-linecap="round" opacity="0.85"/>
      <path id="cane_handle_highlight" d="M337 239 C342 226 351 222 358 226"
            stroke="#A06C48" stroke-width="3" stroke-linecap="round" opacity="0.9"/>
      <path id="cane_tip" d="M326 515 L340 515 L340 527 L326 527 Z"
            fill="#B08A43" stroke="#775E2E" stroke-width="3" stroke-linejoin="round"/>
    </g>
  </g>

  <g id="rig_anchors" visibility="hidden">
    <circle id="body_anchor" cx="158" cy="286" r="5" fill="#00AEEF"/>
    <circle id="tail_root_anchor" cx="257.5" cy="322.226" r="5" fill="#00AEEF"/>
    <circle id="tail_tip_anchor" cx="333" cy="250" r="5" fill="#00AEEF"/>
    <circle id="tail_grip_anchor" cx="337" cy="258" r="5" fill="#00AEEF"/>
    <circle id="prop_spawn_anchor" cx="286" cy="320" r="5" fill="#00AEEF"/>
    <circle id="hat_anchor" cx="160" cy="22" r="5" fill="#00AEEF"/>
    <circle id="bow_tie_anchor" cx="158" cy="254" r="5" fill="#00AEEF"/>
    <circle id="cane_anchor" cx="333" cy="255" r="5" fill="#00AEEF"/>
    <circle id="ground_anchor" cx="180" cy="523" r="5" fill="#00AEEF"/>
  </g>
</svg>
