<svg width="512" height="512" viewBox="0 0 512 512" fill="none" xmlns="http://www.w3.org/2000/svg">
<title>消防员 / Firefighter paperclip character</title>
<desc>Flat vector profession identity state based on the uploaded no-mouth cartoon character. Transparent background.</desc>
<g id="behind_accessories"></g>
<g id="character" transform="translate(135 45) scale(0.75)">
<g id="body_wire">
<path d="M124 267.226C124 267.226 113.008 384.271 158 407.226C182.5 419.726 210.918 399.226 206 369.226C200.18 333.727 196 265.226 206 202.226C214.622 147.907 214.983 149.226 231.5 96.7265C248.017 44.2265 201 -1.42701 148 20.7265C72.5 52.2846 42.7789 215.226 53.4999 312.226C67.2106 436.276 101.591 483.694 130 509.226C169.5 544.726 222.497 545.135 254 500.226C277.5 466.726 254 374.226 257.5 322.226C259.216 296.726 275.5 267.226 301 250.726" stroke="#AEAEAE" stroke-width="30" stroke-linecap="round"/>
</g>
<g id="left_eye_white">
<circle cx="57" cy="154.726" r="57" fill="#ECECEC"/>
</g>
<g id="right_eye_white">
<ellipse cx="213" cy="195.226" rx="57" ry="56.5" fill="#ECECEC"/>
</g>
<g id="right_pupil">
<circle cx="203" cy="192.726" r="39" fill="#402A32"/>
</g>
<g id="left_pupil">
<circle cx="64" cy="154.726" r="39" fill="#402A32"/>
</g>
<g id="left_brow">
<path d="M64 56.7265C64 56.7265 81.7087 52.8505 93.2292 52.7265C105.734 52.5919 125 56.7265 125 56.7265" stroke="#402A32" stroke-width="30" stroke-linecap="round"/>
</g>
<g id="right_brow">
<path d="M204 92.7265C204 92.7265 219.1 90.4067 228.302 92.7265C242.828 96.388 259 115.726 259 115.726" stroke="#402A32" stroke-width="30" stroke-linecap="round"/>
</g>
</g>
<g id="profession_accessories"><path d="M 171 134 C 183 90 293 90 305 134 Z" fill="#E84B4B" stroke="#402A32" stroke-width="6"/><rect x="222" y="88" width="32" height="54" rx="10" fill="#FFE07A" stroke="#402A32" stroke-width="5"/><line x1="187" y1="131" x2="289" y2="131" stroke="#402A32" stroke-width="6" stroke-linecap="round"/><rect x="153" y="130" width="170" height="18" rx="9" fill="#E84B4B" stroke="#402A32" stroke-width="6"/><path d="M 238 97.0 C 257.0 105.0 252.0 121.2 238 141.0 C 224.0 121.2 219.0 105.0 238 97.0 Z" fill="#F5C542" stroke="#402A32" stroke-width="4"/><path d="M 176 330 C 210 365 282 365 318 330 L 343 430 C 303 459 214 463 166 426 Z" fill="#F28C28" stroke="#402A32" stroke-width="6" stroke-linejoin="round"/><rect x="283" y="366" width="46" height="26" rx="7" fill="#F5C542" stroke="#402A32" stroke-width="4"/><line x1="175" y1="424" x2="350" y2="424" stroke="#F5C542" stroke-width="10" stroke-linecap="round"/><path d="M 322 340 C 388 360 385 430 332 438" fill="none" stroke="#D94343" stroke-width="13" stroke-linecap="round"/><rect x="325" y="429" width="42" height="18" rx="6" fill="#D6D6D6" stroke="#402A32" stroke-width="4"/></g>
</svg>
