<svg width="512" height="512" viewBox="0 0 512 512" fill="none" xmlns="http://www.w3.org/2000/svg">
<title>宇航员 / Astronaut paperclip character</title>
<desc>Flat vector profession identity state based on the uploaded no-mouth cartoon character. Transparent background.</desc>
<g id="behind_accessories"><circle cx="240" cy="176" r="126" fill="#DDF7FF" stroke="#9AC9D6" stroke-width="9"/><circle cx="240" cy="176" r="98" fill="#F9FDFF" stroke="#C7EDF7" stroke-width="5" opacity="0.72"/></g>
<g id="character" transform="translate(135 45) scale(0.75)">
<g id="body_wire">
<path d="M124 267.226C124 267.226 113.008 384.271 158 407.226C182.5 419.726 210.918 399.226 206 369.226C200.18 333.727 196 265.226 206 202.226C214.622 147.907 214.983 149.226 231.5 96.7265C248.017 44.2265 201 -1.42701 148 20.7265C72.5 52.2846 42.7789 215.226 53.4999 312.226C67.2106 436.276 101.591 483.694 130 509.226C169.5 544.726 222.497 545.135 254 500.226C277.5 466.726 254 374.226 257.5 322.226C259.216 296.726 275.5 267.226 301 250.726" stroke="#AEAEAE" stroke-width="30" stroke-linecap="round"/>
</g>
<g id="left_eye_white">
<circle cx="57" cy="154.726" r="57" fill="#ECECEC"/>
</g>
<g id="right_eye_white">
<ellipse cx="213" cy="195.226" rx="57" ry="56.5" fill="#ECECEC"/>
</g>
<g id="right_pupil">
<circle cx="203" cy="192.726" r="39" fill="#402A32"/>
</g>
<g id="left_pupil">
<circle cx="64" cy="154.726" r="39" fill="#402A32"/>
</g>
<g id="left_brow">
<path d="M64 56.7265C64 56.7265 81.7087 52.8505 93.2292 52.7265C105.734 52.5919 125 56.7265 125 56.7265" stroke="#402A32" stroke-width="30" stroke-linecap="round"/>
</g>
<g id="right_brow">
<path d="M204 92.7265C204 92.7265 219.1 90.4067 228.302 92.7265C242.828 96.388 259 115.726 259 115.726" stroke="#402A32" stroke-width="30" stroke-linecap="round"/>
</g>
</g>
<g id="profession_accessories"><rect x="166" y="72" width="148" height="36" rx="18" fill="#D7EAF0" stroke="#402A32" stroke-width="5"/><path d="M 176 330 C 210 365 282 365 318 330 L 343 430 C 303 459 214 463 166 426 Z" fill="#FFFFFF" stroke="#402A32" stroke-width="6" stroke-linejoin="round"/><polygon points="292.0,354.0 296.7,365.53 309.12,366.44 299.61,374.47 302.58,386.56 292.0,380.0 281.42,386.56 284.39,374.47 274.88,366.44 287.3,365.53" fill="#F5C542" stroke="#402A32" stroke-width="4"/><rect x="165" y="342" width="60" height="74" rx="12" fill="#DDE8F0" stroke="#402A32" stroke-width="5"/><rect x="283" y="342" width="60" height="74" rx="12" fill="#DDE8F0" stroke="#402A32" stroke-width="5"/><path d="M 188 424 C 214 452 295 452 322 424" fill="none" stroke="#8BAAB6" stroke-width="8" stroke-linecap="round"/></g>
</svg>
