<svg width="512" height="512" viewBox="0 0 512 512" fill="none" xmlns="http://www.w3.org/2000/svg">
<title>科学家 / Scientist paperclip character</title>
<desc>Flat vector profession identity state based on the uploaded no-mouth cartoon character. Transparent background.</desc>
<g id="behind_accessories"></g>
<g id="character" transform="translate(135 45) scale(0.75)">
<g id="body_wire">
<path d="M124 267.226C124 267.226 113.008 384.271 158 407.226C182.5 419.726 210.918 399.226 206 369.226C200.18 333.727 196 265.226 206 202.226C214.622 147.907 214.983 149.226 231.5 96.7265C248.017 44.2265 201 -1.42701 148 20.7265C72.5 52.2846 42.7789 215.226 53.4999 312.226C67.2106 436.276 101.591 483.694 130 509.226C169.5 544.726 222.497 545.135 254 500.226C277.5 466.726 254 374.226 257.5 322.226C259.216 296.726 275.5 267.226 301 250.726" stroke="#AEAEAE" stroke-width="30" stroke-linecap="round"/>
</g>
<g id="left_eye_white">
<circle cx="57" cy="154.726" r="57" fill="#ECECEC"/>
</g>
<g id="right_eye_white">
<ellipse cx="213" cy="195.226" rx="57" ry="56.5" fill="#ECECEC"/>
</g>
<g id="right_pupil">
<circle cx="203" cy="192.726" r="39" fill="#402A32"/>
</g>
<g id="left_pupil">
<circle cx="64" cy="154.726" r="39" fill="#402A32"/>
</g>
<g id="left_brow">
<path d="M64 56.7265C64 56.7265 81.7087 52.8505 93.2292 52.7265C105.734 52.5919 125 56.7265 125 56.7265" stroke="#402A32" stroke-width="30" stroke-linecap="round"/>
</g>
<g id="right_brow">
<path d="M204 92.7265C204 92.7265 219.1 90.4067 228.302 92.7265C242.828 96.388 259 115.726 259 115.726" stroke="#402A32" stroke-width="30" stroke-linecap="round"/>
</g>
</g>
<g id="profession_accessories"><rect x="168" y="126" width="72" height="45" rx="22" fill="#A9E7FF" stroke="#402A32" stroke-width="5"/><rect x="250" y="126" width="72" height="45" rx="22" fill="#A9E7FF" stroke="#402A32" stroke-width="5"/><line x1="240" y1="147" x2="250" y2="147" stroke="#402A32" stroke-width="5" stroke-linecap="round"/><path d="M 176 330 C 210 365 282 365 318 330 L 343 430 C 303 459 214 463 166 426 Z" fill="#FFFFFF" stroke="#402A32" stroke-width="6" stroke-linejoin="round"/><rect x="286" y="367" width="42" height="26" rx="7" fill="#BDEBFF" stroke="#402A32" stroke-width="4"/><path d="M 347 330 L 374 390 C 384 413 341 430 329 405 L 354 330 Z" fill="#B6F2D0" stroke="#402A32" stroke-width="5" stroke-linejoin="round"/><line x1="344" y1="330" x2="365" y2="330" stroke="#402A32" stroke-width="5" stroke-linecap="round"/><circle cx="353" cy="395" r="8" fill="#6BE3A1"/><circle cx="365" cy="406" r="5" fill="#6BE3A1"/></g>
</svg>
