<svg width="512" height="512" viewBox="0 0 512 512" fill="none" xmlns="http://www.w3.org/2000/svg">
<title>清洁工 / Cleaner paperclip character</title>
<desc>Flat vector profession identity state based on the uploaded no-mouth cartoon character. Transparent background.</desc>
<g id="behind_accessories"></g>
<g id="character" transform="translate(135 45) scale(0.75)">
<g id="body_wire">
<path d="M124 267.226C124 267.226 113.008 384.271 158 407.226C182.5 419.726 210.918 399.226 206 369.226C200.18 333.727 196 265.226 206 202.226C214.622 147.907 214.983 149.226 231.5 96.7265C248.017 44.2265 201 -1.42701 148 20.7265C72.5 52.2846 42.7789 215.226 53.4999 312.226C67.2106 436.276 101.591 483.694 130 509.226C169.5 544.726 222.497 545.135 254 500.226C277.5 466.726 254 374.226 257.5 322.226C259.216 296.726 275.5 267.226 301 250.726" stroke="#AEAEAE" stroke-width="30" stroke-linecap="round"/>
</g>
<g id="left_eye_white">
<circle cx="57" cy="154.726" r="57" fill="#ECECEC"/>
</g>
<g id="right_eye_white">
<ellipse cx="213" cy="195.226" rx="57" ry="56.5" fill="#ECECEC"/>
</g>
<g id="right_pupil">
<circle cx="203" cy="192.726" r="39" fill="#402A32"/>
</g>
<g id="left_pupil">
<circle cx="64" cy="154.726" r="39" fill="#402A32"/>
</g>
<g id="left_brow">
<path d="M64 56.7265C64 56.7265 81.7087 52.8505 93.2292 52.7265C105.734 52.5919 125 56.7265 125 56.7265" stroke="#402A32" stroke-width="30" stroke-linecap="round"/>
</g>
<g id="right_brow">
<path d="M204 92.7265C204 92.7265 219.1 90.4067 228.302 92.7265C242.828 96.388 259 115.726 259 115.726" stroke="#402A32" stroke-width="30" stroke-linecap="round"/>
</g>
</g>
<g id="profession_accessories"><path d="M 170 92 C 201 72 276 72 307 92 L 297 121 L 182 121 Z" fill="#6CC0E5" stroke="#402A32" stroke-width="5" stroke-linejoin="round"/><path d="M 176 330 C 210 365 282 365 318 330 L 343 430 C 303 459 214 463 166 426 Z" fill="#6CC0E5" stroke="#402A32" stroke-width="6" stroke-linejoin="round"/><rect x="284" y="368" width="48" height="26" rx="7" fill="#FFFFFF" stroke="#402A32" stroke-width="4"/><line x1="339" y1="315" x2="374" y2="429" stroke="#A66A3F" stroke-width="8" stroke-linecap="round"/><path d="M 344 426 C 365 400 397 400 418 426 L 344 426 Z" fill="#9AD6A0" stroke="#402A32" stroke-width="5"/><rect x="156" y="381" width="72" height="44" rx="8" fill="#A7D8F0" stroke="#402A32" stroke-width="5"/><path d="M 168 381 L 177 356 L 209 356 L 216 381" fill="none" stroke="#402A32" stroke-width="5" stroke-linecap="round"/></g>
</svg>
